<svg xmlns="http://www.w3.org/2000/svg" width="806.639" height="513.393" viewBox="0 0 806.639 513.393" xmlns:xlink="http://www.w3.org/1999/xlink" role="img" artist="Katerina Limpitsouni" source="https://undraw.co/"><g transform="translate(-664.352 -284.586)"><path d="M189.168,81.632a77.011,77.011,0,1,1,100.083,73.49l-2.574,148.209L168.97,187.152s45.895-17.77,54.687-41.318a76.927,76.927,0,0,1-34.489-64.2Z" transform="translate(664.352 282.021)" fill="#ed9da0"/><path d="M224,145.878s-26.276-9.358-39.745-36.688c-12.372-25.1-13.729-67.868,21.4-78.254,0,0-20.239-17.474,17.075-28.12l-4.963,4.579s4.38-7.91,26.009-3.232c0,0,79.924-9.309,94.11,17.007,0,0,42.9,8.791,20.053,41.422,0,0-1.181,6.35-9.332,6.23l4.072-5.326-12.411,5.326s-17.262-27.495-33.554-12.292c0,0-31.159-1.311-46.062-4.041,0,0,2.991,40.025-25.612,47.82S224,145.878,224,145.878Z" transform="translate(664.352 282.021)" fill="#090814"/><path d="M488.239,404.528,347.483,488.493l-11.7-54.552,133.367-63.366c2.526-9.587,9.511-18.756,19.871-24.582,18.127-10.194,39.661-6.3,48.1,8.7s.581,35.427-17.546,45.621c-10.36,5.826-21.823,7.031-31.327,4.21Z" transform="translate(664.352 282.021)" fill="#ed9da0"/><path d="M500.185,400.206H471.515a10.605,10.605,0,0,1-10.3-8.3h0a10.582,10.582,0,0,1,3.163-10L551.8,301.441a6.98,6.98,0,0,1,4.979-1.844l27.754.957a7,7,0,0,1,4.784,11.859l-82.182,84.85a9.72,9.72,0,0,1-6.947,2.942Z" transform="translate(664.352 282.021)" fill="#090814"/><path d="M194.983,167.618c32.442,32.6,63.25,41.349,91.6,14.169l40.035,293.358-16.646,24.119-101.232.288L194.983,167.618Z" transform="translate(664.352 282.021)" fill="#d6d6e3"/><path d="M189.656,164.669l-16.928,13.913-51.392,29.332A76.58,76.58,0,0,0,74.9,256.9a461.328,461.328,0,0,0-17.4,80.883c-8.447,69.355-2.313,160.805-2.313,160.805l78.132.679-3.4-45.86L117.356,339.943l.333,159.61h91.047s6.231-270.71-7.347-330.913a7.284,7.284,0,0,0-11.734-3.97Z" transform="translate(664.352 282.021)" fill="#090814"/><path d="M286.579,181.787l61.562,29.6a75.081,75.081,0,0,1,41,52.524L414.937,389.2l8.43,75.786S387.1,497.465,363.3,486.7l1.7,12.569H309.968L286.579,181.787Z" transform="translate(664.352 282.021)" fill="#090814"/><path d="M376.89,410.262l72.357-40.085,20.722,57.41S428.376,479.121,363.3,486.7l13.588-76.434Z" transform="translate(664.352 282.021)" fill="#090814"/><path d="M498.588,392.991a3.391,3.391,0,0,1-.459-.033l-27.446-3.843a3.347,3.347,0,0,1-1.855-5.728l82.011-78.794a3.482,3.482,0,0,1,2.414-.933l28.919.83a3.347,3.347,0,0,1,2.247,5.737l-83.481,81.808a3.38,3.38,0,0,1-2.348.955Z" transform="translate(664.352 282.021)" fill="#316c63"/><path d="M538.418,330.472c.177.109.223.55.264.784.087.487.654,9.779.631,10.321a1.943,1.943,0,0,1-2.083,2.161c-.534.027-9.512-.484-10.186-.58-1.089-.154-1.59-.6-.363-2.049,1-1.184,8.311-8.217,10.241-10.248a1.521,1.521,0,0,1,1.5-.389Z" transform="translate(664.352 282.021)" fill="#316c63"/><path d="M377.109,505.393a305.541,305.541,0,0,1-32.674-79.071,311.515,311.515,0,0,1-9.8-84.578,300.945,300.945,0,0,1,4.875-47.774c.347-1.887-2.543-2.7-2.893-.8a305.858,305.858,0,0,0-4.807,43,310.414,310.414,0,0,0,1.284,43.276,317.214,317.214,0,0,0,7.154,42.468,311.307,311.307,0,0,0,12.985,41.3,305.567,305.567,0,0,0,18.6,39.048q1.324,2.333,2.689,4.641a1.5,1.5,0,0,0,2.59-1.514h0Z" transform="translate(664.352 282.021)" fill="#fff"/><path d="M428.448,374.34a53.808,53.808,0,0,1-36.3,25.951c-1.894.365-1.092,3.257.8,2.893a56.718,56.718,0,0,0,38.09-27.33,1.5,1.5,0,0,0-2.59-1.514h0Z" transform="translate(664.352 282.021)" fill="#fff"/><path d="M133.688,514.519c-1.513-17.655-.436-35.618.987-53.241a507.376,507.376,0,0,1,8.193-60.356,186.514,186.514,0,0,1,6.911-26.11c.656-1.819-2.242-2.6-2.893-.8a176.889,176.889,0,0,0-6.276,23.066c-2.039,9.538-3.648,19.167-5.014,28.823a552.242,552.242,0,0,0-5.38,61.22,239.524,239.524,0,0,0,.472,27.395c.164,1.909,3.165,1.927,3,0h0Z" transform="translate(664.352 282.021)" fill="#fff"/><path d="M233.057,477.089l-111.477,12.74,10.7-42.8,98.853-8.844c6.541-7.45,16.885-12.535,28.757-13.122,20.771-1.027,38.3,12.076,39.148,29.266s-15.3,31.958-36.071,32.984c-11.871.587-22.666-3.454-29.911-10.222Z" transform="translate(664.352 282.021)" fill="#ed9da0"/><path d="M130.867,432.5l82.642-3.556-7.095,60.622S146.185,517.1,84.578,494.819L130.867,432.5Z" transform="translate(664.352 282.021)" fill="#090814"/><path d="M286.987,183.241,326.625,473.7l3.454-5L290.044,175.334c-25.9,24.833-53.852,19.672-83.229-6.266a4.738,4.738,0,0,0-7.875,3.471c31.14,29.712,60.736,36.888,88.047,10.7Z" transform="translate(664.352 282.021)" fill="#090814"/><path d="M470.011,504.614H2.36a2.759,2.759,0,0,1,0-5.458H470.011a2.753,2.753,0,0,1,0,5.458Z" transform="translate(664.352 282.021)" fill="#ccc"/><path d="M15441.736-3572.294l-2.984-6.7h-9.251a27.5,27.5,0,0,1-27.5-27.5,27.5,27.5,0,0,1,27.5-27.5h219a27.5,27.5,0,0,1,27.5,27.5,27.5,27.5,0,0,1-27.5,27.5h-174.371l-23.7,10.552a5.831,5.831,0,0,1-2.381.5A7.088,7.088,0,0,1,15441.736-3572.294Z" transform="translate(-14211.039 4133.416)" fill="#316c63"/><path d="M27.5,0h219a27.5,27.5,0,0,1,0,55H27.5a27.5,27.5,0,0,1,0-55Z" transform="translate(1053.316 412.993)" fill="#f2f2f2"/><path d="M27.5,0h219a27.5,27.5,0,0,1,0,55H27.5a27.5,27.5,0,0,1,0-55Z" transform="translate(1196.99 326.572)" fill="#316c63"/></g></svg>